<svg id="Layer_1" data-name="Layer 1" xmlns="http://www.w3.org/2000/svg" viewBox="0 0 960 560"><defs><style>.cls-1{fill:#781614;}</style></defs><path d="M594.87,240.74c-.11-.15-.24-.27-.35-.41-1.57-1.74-3.16-3.47-4.78-5.16A209.78,209.78,0,0,0,570.07,217c-2.51-2.08-5.08-4.08-7.7-6Q555,205.45,547,200.57h0c-.5-.32-1-.65-1.53-1q-3.08-1.85-6.19-3.59c-4-2.21-8-4.26-12.1-6.11-2.56-1.17-5.14-2.27-7.74-3.28-3.33-1.28-6.7-2.44-10.13-3.45-2.58-.78-5.2-1.46-7.84-2.07-1.45-.34-2.89-.63-4.35-.91s-3.07-.54-4.6-.75c-2.6-.36-5.21-.64-7.82-.91q-3.58-.37-7.17-.79h-4.16a1.42,1.42,0,0,0-.36,0c-.82.11-1.62.28-2.42.31s-1.32,0-2,.11q-4.11.19-8.16.74c-2.61.34-5.19.76-7.74,1.3h0c-2.85.56-5.69,1.25-8.48,2-2.57.72-5.12,1.52-7.63,2.4-3.16,1.07-6.28,2.28-9.37,3.6q-3.84,1.62-7.6,3.45l-.73.36q-5.34,2.61-10.43,5.53c-2.58,1.46-5.14,3-7.64,4.59-4.88,3.08-9.58,6.37-14.16,9.85q-3.86,3-7.57,6a231.83,231.83,0,0,0-18.28,17.1q-1.24,1.29-2.49,2.61c-.88.95-1.71,1.93-2.56,2.91a2.52,2.52,0,0,0-.49,2.29,2.54,2.54,0,0,0,.49,1l.3.34a213.6,213.6,0,0,0,49,40.73c15.07,9.1,31,16.11,48.36,19.4,6.45,1.24,13.05,1.66,19.59,2.44a1.37,1.37,0,0,0,.29,0h3.86a2.36,2.36,0,0,0,.38,0,22.1,22.1,0,0,1,2.41-.32c18.4-.66,35.57-6.07,51.95-14.09,19.39-9.5,36.57-22.2,52.07-37.19,3.7-3.58,7.2-7.39,10.77-11.14a2.62,2.62,0,0,0,.62-1.14A2.46,2.46,0,0,0,594.87,240.74Zm-211.23,19.2c-5.8-4.92-11.27-10.23-16.86-15.37a8.21,8.21,0,0,1-.59-.59,2.29,2.29,0,0,1-.57-1H413c-.18,20.33,10.2,38.53,26.26,49.6C418.55,285.44,400.3,274.05,383.64,259.94Zm51-64.25a58.8,58.8,0,0,0-5.57,5.48,61.77,61.77,0,0,0-8.64,12.34,58.89,58.89,0,0,0-3.11,6.74,63.72,63.72,0,0,0-2.39,7.43,59,59,0,0,0-1.44,7.49H371.8c2.53-2.41,5.06-4.77,7.67-7,3-2.57,6-5.09,9-7.52,2.6-2,5.24-4,7.92-5.94q5.9-4.26,12.08-8,3.84-2.34,7.83-4.48c.59-.33,1.18-.64,1.77-.94,2.44-1.28,4.89-2.51,7.36-3.64s5.13-2.31,7.71-3.35c2.1-.83,4.22-1.61,6.34-2.34C437.84,193.07,436.21,194.35,434.65,195.69Zm64.66,46.62c0,.22,0,.45,0,.67s0,.52,0,.78a24,24,0,0,1-47.95,0q0-.39,0-.78c0-.22,0-.45,0-.67,0-.54,0-1.07.06-1.6a24.4,24.4,0,0,1,2-8.19c.35-.8.76-1.56,1.18-2.31s.92-1.46,1.44-2.15a25.44,25.44,0,0,1,1.7-2.06,18.14,18.14,0,0,1,1.78-1.73,24.19,24.19,0,0,1,2.12-1.66,19.59,19.59,0,0,1,2.14-1.33,23.52,23.52,0,0,1,2.37-1.15,23,23,0,0,1,2.53-.88,19.11,19.11,0,0,1,2.49-.57,21.71,21.71,0,0,1,2.93-.35l1.27,0c.38,0,.74,0,1.12,0a23.21,23.21,0,0,1,3.35.39,18.89,18.89,0,0,1,2.1.51,21.38,21.38,0,0,1,3.64,1.34c.58.27,1.14.57,1.69.89a23.52,23.52,0,0,1,3.62,2.54c.41.35.82.72,1.2,1.08a23.18,23.18,0,0,1,3.21,3.85L496,230a25.13,25.13,0,0,1,2.28,5.13c.09.32.19.65.28,1a24.2,24.2,0,0,1,.8,6.06Zm14.09-49.62c2.65.95,5.27,2,7.87,3.14q5.07,2.21,10.06,4.78l.07,0q4,2.08,7.89,4.37c4.58,2.66,9,5.52,13.33,8.54,2.73,1.91,5.41,3.9,8,5.93a233.93,233.93,0,0,1,18.14,15.68H535.15a53.74,53.74,0,0,0-1.56-8.41,55.92,55.92,0,0,0-2.47-7.44A60.78,60.78,0,0,0,523,205.4a61.87,61.87,0,0,0-5.34-6,58.51,58.51,0,0,0-5.88-5.11,61.5,61.5,0,0,0-6-4.1C508.34,190.93,510.88,191.77,513.4,192.69Zm71,51.74c-6.73,6-13.2,12-20,17.58C547.52,276,529,287.07,508,293.73a63,63,0,0,0,27.51-50.41V243h49.71A2.48,2.48,0,0,1,584.38,244.43Z"/><path class="cls-1" d="M514,99.87,493.6,176.11c-2.77-.39-5.56-.69-8.35-1L506,97.73a4.16,4.16,0,1,1,8,2.14Z"/><path class="cls-1" d="M581.91,135.88l-51.37,51.37c-2.73-1.24-5.48-2.41-8.25-3.49L576,130a4.15,4.15,0,0,1,5.87,5.87Z"/><path class="cls-1" d="M626.1,202.75l-49.84,13.36c-2.68-2.22-5.42-4.35-8.21-6.43l55.91-15a4.16,4.16,0,1,1,2.14,8Z"/><path class="cls-1" d="M380.74,210.83q-4.11,3.15-8.07,6.44l-52.32-14a4.16,4.16,0,1,1,2.14-8Z"/><path class="cls-1" d="M424,185.48q-4.1,1.72-8.11,3.68l-58.94-58.94a4.17,4.17,0,1,1,5.89-5.9Z"/><path class="cls-1" d="M459.41,175.55c-2.79.36-5.53.81-8.25,1.38h0L428.57,92.65a4.16,4.16,0,1,1,8-2.14Z"/><path class="cls-1" d="M101.1,447.09q-18.69,0-32.44-7.54a53.91,53.91,0,0,1-21.29-20.76A62.24,62.24,0,0,1,45,364.15a66.6,66.6,0,0,1,14.2-20.4,67.83,67.83,0,0,1,20.49-13.83,59.75,59.75,0,0,1,24.26-5,88,88,0,0,1,15.55,1.17,64.41,64.41,0,0,1,11.32,3.06,107.28,107.28,0,0,1,10,4.4l1.62,32.71h-3.23l-14.38-25.16a50.28,50.28,0,0,0-10.07-5.48,29.18,29.18,0,0,0-10.42-1.71,36,36,0,0,0-21,6.47,43.77,43.77,0,0,0-14.74,18.15q-5.38,11.68-5.39,27,0,16.35,5.21,28t14.11,18a33.62,33.62,0,0,0,19.86,6.29,40.21,40.21,0,0,0,13.93-2.16,62.67,62.67,0,0,0,10.87-5.21L141,408.27h3.06l-2.34,29.66a75.63,75.63,0,0,1-17.16,6.65A94.36,94.36,0,0,1,101.1,447.09Z"/><path class="cls-1" d="M168.32,445.3v-2.88l15.1-7.37V336.92l-15.1-7.36v-2.88h55.35q18.87,0,29.75,7.82T264.29,356a25.3,25.3,0,0,1-6.74,17.53,44.6,44.6,0,0,1-17.7,11.59l33.61,50.5L286,442.42v2.88H252.43l-34-54.82H205.88v44.39l13.48,7.55v2.88Zm46.73-108.73h-9.17v44.75h10.24q11.15,0,18.07-6.3t6.92-16.35q0-10.43-6.83-16.26T215.05,336.57Z"/><path class="cls-1" d="M325.22,445.3v-2.88l16.17-7.37V389.94L301.85,336l-11.68-6.46v-2.88h50.68v2.88L327.37,336v.72l31.63,43,28.58-42.6v-.71l-13.66-6.83v-2.88h39.72v2.88l-11.5,5.93L364,389.76v45.29l16,7.37v2.88Z"/><path class="cls-1" d="M428.37,445.3v-2.88l15.1-7.37V336.92l-15.1-7.36v-2.88h55.9q21.19,0,34.05,7.64t12.86,24.35a26,26,0,0,1-6.74,17.7q-6.75,7.65-18.34,11.95A74.43,74.43,0,0,1,480,392.64h-14v42.41l17.61,7.37v2.88Zm37.57-108.73v46.9h11.5q14.19,0,22.28-6.56a20.5,20.5,0,0,0,8.09-16.62q0-12.59-8.18-18.15t-23.45-5.57Z"/><path class="cls-1" d="M548.61,445.3v-2.88l15.09-7.37V336.92l-15.09-7.36v-2.88h57.87q20.65,0,35.13,7t22.11,19.23a51.15,51.15,0,0,1,7.64,27.68,66.74,66.74,0,0,1-4.94,25.88A61,61,0,0,1,652.58,427a64,64,0,0,1-21,13.47,70.18,70.18,0,0,1-26.33,4.86Zm51.76-108.73h-14.2v98.84h16.89q14.21,0,24.18-6a39.27,39.27,0,0,0,15.27-17.07q5.29-11.06,5.3-26.15,0-22.65-12.13-36.13T600.37,336.57Z"/><path class="cls-1" d="M691.48,445.3v-2.88l15.1-7.37V336.92l-15.1-7.36v-2.88h94v31.09H782.6l-12.4-21.2H729v42.59H758l9.71-15.28h2.87V404h-2.87L758,389H729v46.37h45.65l12.94-25.16h2.88V445.3Z"/><path class="cls-1" d="M808.48,445.3v-2.88l13.84-7,37.56-47.27L822.5,336l-11.69-6.46v-2.88h53.38v2.88L850,336.39v.89l26.06,35.41,28.22-35.41v-.71l-13.84-7v-2.88h40.26v2.88l-11.51,6.29-36.66,45.47,39.72,53.91L935,442.42v2.88H880.72v-2.88l12.95-6.65v-.72L866,396.77l-29.84,38.1-.18.72,14.56,6.83v2.88Z"/></svg>