<?xml version="1.0" encoding="utf-8"?>
<!-- Generator: Adobe Illustrator 25.0.0, SVG Export Plug-In . SVG Version: 6.00 Build 0)  -->
<svg version="1.1" id="Layer_1" xmlns="http://www.w3.org/2000/svg" xmlns:xlink="http://www.w3.org/1999/xlink" x="0px" y="0px"
	 viewBox="0 0 59.86 15.53" style="enable-background:new 0 0 59.86 15.53;" xml:space="preserve">
<style type="text/css">
	.st0{clip-path:url(#SVGID_2_);fill:#EB9922;}
	.st1{clip-path:url(#SVGID_2_);fill:none;stroke:#EB9922;stroke-width:0.31;stroke-miterlimit:10;}
	.st2{clip-path:url(#SVGID_2_);}
	.st3{clip-path:url(#SVGID_2_);fill:#EB9922;stroke:#EB9922;stroke-miterlimit:10;}
	.st4{clip-path:url(#SVGID_4_);fill:#EB9922;}
	.st5{clip-path:url(#SVGID_4_);fill:none;stroke:#EB9922;stroke-width:0.31;stroke-miterlimit:10;}
	.st6{clip-path:url(#SVGID_4_);}
	.st7{fill:#EB9922;}
</style>
<g>
	<defs>
		<rect id="SVGID_1_" x="-57" y="-58.05" width="50.74" height="76.79"/>
	</defs>
	<clipPath id="SVGID_2_">
		<use xlink:href="#SVGID_1_"  style="overflow:visible;"/>
	</clipPath>
</g>
<g>
	<g>
		<path class="st7" d="M7.1,14.33c-3.63,0-6.59-2.96-6.59-6.59S3.47,1.15,7.1,1.15s6.59,2.96,6.59,6.59S10.73,14.33,7.1,14.33z
			 M7.1,4.15c-1.98,0-3.59,1.61-3.59,3.59s1.61,3.59,3.59,3.59s3.59-1.61,3.59-3.59S9.08,4.15,7.1,4.15z"/>
	</g>
	<g>
		<path class="st7" d="M51.59,14.33c-3.63,0-6.59-2.96-6.59-6.59s2.96-6.59,6.59-6.59s6.59,2.96,6.59,6.59S55.23,14.33,51.59,14.33z
			 M51.59,4.15c-1.98,0-3.59,1.61-3.59,3.59s1.61,3.59,3.59,3.59s3.59-1.61,3.59-3.59S53.57,4.15,51.59,4.15z"/>
	</g>
	<g>
		<path class="st7" d="M29.35,14.33c-3.63,0-6.59-2.96-6.59-6.59s2.96-6.59,6.59-6.59s6.59,2.96,6.59,6.59S32.98,14.33,29.35,14.33z
			 M29.35,4.15c-1.98,0-3.59,1.61-3.59,3.59s1.61,3.59,3.59,3.59s3.59-1.61,3.59-3.59S31.32,4.15,29.35,4.15z"/>
	</g>
</g>
</svg>
