<?xml version="1.0" encoding="utf-8"?>
<!-- Generator: Adobe Illustrator 25.0.0, SVG Export Plug-In . SVG Version: 6.00 Build 0)  -->
<svg version="1.1" id="Layer_1" xmlns="http://www.w3.org/2000/svg" xmlns:xlink="http://www.w3.org/1999/xlink" x="0px" y="0px"
	 viewBox="0 0 54.96 79.62" style="enable-background:new 0 0 54.96 79.62;" xml:space="preserve">
<style type="text/css">
	.st0{clip-path:url(#SVGID_2_);fill:#EB9922;}
	.st1{clip-path:url(#SVGID_2_);fill:none;stroke:#EB9922;stroke-width:0.31;stroke-miterlimit:10;}
	.st2{clip-path:url(#SVGID_2_);}
	.st3{clip-path:url(#SVGID_2_);fill:#EB9922;stroke:#EB9922;stroke-miterlimit:10;}
	.st4{clip-path:url(#SVGID_4_);fill:#EB9922;}
	.st5{clip-path:url(#SVGID_4_);fill:none;stroke:#EB9922;stroke-width:0.31;stroke-miterlimit:10;}
	.st6{clip-path:url(#SVGID_4_);}
	.st7{fill:#EB9922;}
</style>
<g>
	<defs>
		<rect id="SVGID_1_" x="1.73" y="1.31" width="50.74" height="76.79"/>
	</defs>
	<clipPath id="SVGID_2_">
		<use xlink:href="#SVGID_1_"  style="overflow:visible;"/>
	</clipPath>
	<path class="st0" d="M38.12,1.55C30.33,1.55,24,7.77,24,15.4c0,5.61,3.41,10.46,8.3,12.64c0.19,0.09,0.41-0.06,0.41-0.28v-2.6
		c0-0.51-0.15-0.75-0.38-0.9c-3.04-1.86-5.06-5.13-5.06-8.86c0-5.77,4.86-10.47,10.84-10.47s10.84,4.7,10.84,10.47
		c0,3.71-2.01,6.97-5.02,8.83c-0.23,0.14-0.38,0.4-0.38,0.67v2.83c0,0.22,0.22,0.37,0.42,0.28c4.87-2.19,8.26-7.02,8.26-12.62
		C52.23,7.77,45.9,1.55,38.12,1.55"/>
	<path class="st1" d="M38.12,1.55C30.33,1.55,24,7.77,24,15.4c0,5.61,3.41,10.46,8.3,12.64c0.19,0.09,0.41-0.06,0.41-0.28v-2.6
		c0-0.51-0.15-0.75-0.38-0.9c-3.04-1.86-5.06-5.13-5.06-8.86c0-5.77,4.86-10.47,10.84-10.47s10.84,4.7,10.84,10.47
		c0,3.71-2.01,6.97-5.02,8.83c-0.23,0.14-0.38,0.4-0.38,0.67v2.83c0,0.22,0.22,0.37,0.42,0.28c4.87-2.19,8.26-7.02,8.26-12.62
		C52.23,7.77,45.9,1.55,38.12,1.55z"/>
	<path class="st2" d="M46.77,76.61v1.48l-11.49-0.01c-0.41,0.05-0.82-0.54-0.82-0.96l0.01-10.85c-0.01-0.05-0.01-0.1-0.01-0.15
		l-0.04-25.62c0-0.4-0.3-0.72-0.69-0.72H18.18c-0.38,0-0.69,0.32-0.69,0.72l0.03,26.47c0,0.43-0.36,0.75-0.77,0.71H5.25V66.2
		c3.9-0.47,4.77-1.41,4.93-3.86c0.08-1.16,0-2.63,0-4.55V17.88c0-6.05-2.71-5.78-8.44-6.49V9.91l15.01-1.92
		c0.41-0.05,0.77,0.28,0.77,0.71v25.2c0,0.4,0.32,0.72,0.69,0.72h15.55c0.39,0,0.69-0.32,0.69-0.72V19.59
		c0-0.39,0.32-0.72,0.69-0.72h5.97c0.38,0,0.69,0.33,0.69,0.72v44.83l0.03,0.07C41.84,70.54,41.03,75.91,46.77,76.61"/>
</g>
</svg>
