<?xml version="1.0" encoding="utf-8"?>
<!-- Generator: Adobe Illustrator 25.0.0, SVG Export Plug-In . SVG Version: 6.00 Build 0)  -->
<svg version="1.1" id="Layer_1" xmlns="http://www.w3.org/2000/svg" xmlns:xlink="http://www.w3.org/1999/xlink" x="0px" y="0px"
	 viewBox="0 0 94.66 62.76" style="enable-background:new 0 0 94.66 62.76;" xml:space="preserve">
<style type="text/css">
	.st0{clip-path:url(#SVGID_2_);fill:#EB9922;}
	.st1{clip-path:url(#SVGID_2_);fill:none;stroke:#EB9922;stroke-width:0.31;stroke-miterlimit:10;}
	.st2{clip-path:url(#SVGID_2_);}
	.st3{clip-path:url(#SVGID_2_);fill:#EB9922;stroke:#EB9922;stroke-miterlimit:10;}
	.st4{clip-path:url(#SVGID_4_);fill:#EB9922;}
	.st5{clip-path:url(#SVGID_4_);fill:none;stroke:#EB9922;stroke-width:0.31;stroke-miterlimit:10;}
	.st6{clip-path:url(#SVGID_4_);}
	.st7{fill:#EB9922;}
	.st8{fill:none;}
	.st9{font-family:'RotisSemiSerifStd-Bold';}
	.st10{font-size:35px;}
</style>
<g>
	<defs>
		<rect id="SVGID_1_" x="1.73" y="65.22" width="50.74" height="76.79"/>
	</defs>
	<clipPath id="SVGID_2_">
		<use xlink:href="#SVGID_1_"  style="overflow:visible;"/>
	</clipPath>
	<circle class="st3" cx="86.9" cy="39.98" r="12.56"/>
</g>
<g>
	<defs>
		<rect id="SVGID_3_" x="3.99" y="5.07" width="34.77" height="52.62"/>
	</defs>
	<clipPath id="SVGID_4_">
		<use xlink:href="#SVGID_3_"  style="overflow:visible;"/>
	</clipPath>
	<path class="st4" d="M28.92,5.24c-5.34,0-9.67,4.26-9.67,9.49c0,3.85,2.34,7.17,5.69,8.66c0.13,0.06,0.28-0.04,0.28-0.19v-1.78
		c0-0.35-0.1-0.52-0.26-0.62c-2.08-1.27-3.47-3.52-3.47-6.07c0-3.95,3.33-7.18,7.43-7.18s7.43,3.22,7.43,7.18
		c0,2.54-1.37,4.78-3.44,6.05c-0.16,0.1-0.26,0.27-0.26,0.46v1.94c0,0.15,0.15,0.25,0.29,0.19c3.33-1.5,5.66-4.81,5.66-8.65
		C38.6,9.5,34.26,5.24,28.92,5.24"/>
	<path class="st5" d="M28.92,5.24c-5.34,0-9.67,4.26-9.67,9.49c0,3.85,2.34,7.17,5.69,8.66c0.13,0.06,0.28-0.04,0.28-0.19v-1.78
		c0-0.35-0.1-0.52-0.26-0.62c-2.08-1.27-3.47-3.52-3.47-6.07c0-3.95,3.33-7.18,7.43-7.18s7.43,3.22,7.43,7.18
		c0,2.54-1.37,4.78-3.44,6.05c-0.16,0.1-0.26,0.27-0.26,0.46v1.94c0,0.15,0.15,0.25,0.29,0.19c3.33-1.5,5.66-4.81,5.66-8.65
		C38.6,9.5,34.26,5.24,28.92,5.24z"/>
	<path class="st6" d="M34.85,56.67v1.02l-7.88-0.01c-0.28,0.03-0.56-0.37-0.56-0.66l0.01-7.43c-0.01-0.03-0.01-0.07-0.01-0.1
		l-0.02-17.56c0-0.28-0.21-0.49-0.47-0.49H15.26c-0.26,0-0.47,0.22-0.47,0.49l0.02,18.14c0,0.29-0.25,0.52-0.53,0.48H6.4v-1.02
		c2.68-0.32,3.27-0.97,3.37-2.64c0.06-0.79,0-1.8,0-3.12V16.43c0-4.14-1.86-3.96-5.79-4.44v-1.02l10.29-1.32
		c0.28-0.03,0.53,0.19,0.53,0.48V27.4c0,0.28,0.22,0.49,0.47,0.49h10.66c0.26,0,0.47-0.22,0.47-0.49v-9.8
		c0-0.27,0.22-0.49,0.47-0.49h4.09c0.26,0,0.47,0.22,0.47,0.49v30.72l0.02,0.05C31.47,52.52,30.92,56.19,34.85,56.67"/>
</g>
<rect x="34.7" y="26.42" class="st8" width="36.81" height="28.94"/>
<text transform="matrix(1 0 0 1 34.7003 50.9247)" class="st9 st10">ail</text>
<g>
	<path class="st7" d="M81.82,34.18c4.22,0,7.65,3.43,7.65,7.65s-3.43,7.65-7.65,7.65c-4.22,0-7.65-3.43-7.65-7.65
		S77.6,34.18,81.82,34.18 M81.82,31.38c-5.77,0-10.45,4.68-10.45,10.45s4.68,10.45,10.45,10.45s10.45-4.68,10.45-10.45
		S87.59,31.38,81.82,31.38L81.82,31.38z"/>
</g>
</svg>
