<?xml version="1.0" encoding="utf-8"?>
<!-- Generator: Adobe Illustrator 25.0.0, SVG Export Plug-In . SVG Version: 6.00 Build 0)  -->
<svg version="1.1" id="Layer_1" xmlns="http://www.w3.org/2000/svg" xmlns:xlink="http://www.w3.org/1999/xlink" x="0px" y="0px"
	 viewBox="0 0 221.87 234.62" style="enable-background:new 0 0 221.87 234.62;" xml:space="preserve">
<style type="text/css">
	.st0{fill:#FFABE7;}
	.st1{fill:#FFFFFF;}
	.st2{fill:#E80000;}
	.st3{fill:#FE9800;}
	.st4{fill:#DFFF00;}
	.st5{fill:#00C200;}
	.st6{fill:#021BA1;}
	.st7{fill:#82008F;}
	.st8{fill:#010101;}
	.st9{fill:#683709;}
	.st10{fill:#46DAF1;}
	.st11{fill:#FFACC8;}
	.st12{fill:#FAF9F5;}
	.st13{fill:#C68642;}
	.st14{fill:#A67221;}
	.st15{fill:#8BD0FF;}
	.st16{fill:#FFC2FF;}
	.st17{fill:#231F20;}
	.st18{fill:#BAB8B9;}
	.st19{fill:#A7F86C;}
	.st20{fill:#FF11C8;}
	.st21{fill:#A200FF;}
	.st22{fill:#0091ED;}
	.st23{fill:#F1C27D;}
	.st24{fill:#F00083;}
	.st25{fill:#FF38BB;}
	.st26{fill:#FF84EE;}
	.st27{fill:#FFFDFF;}
	.st28{fill:#BC8AFF;}
	.st29{fill:#B048FA;}
	.st30{fill:#9100E4;}
	.st31{fill:#FFD9B3;}
	.st32{fill:url(#SVGID_1_);}
	.st33{fill:#FFF200;}
	.st34{fill:#00A6E0;}
	.st35{fill:none;}
	.st36{fill:none;stroke:#FFF200;stroke-width:8;stroke-miterlimit:10;}
	.st37{fill:none;stroke:#FFF200;stroke-width:5;stroke-linecap:round;stroke-miterlimit:10;}
</style>
<rect x="143.54" y="7.96" class="st0" width="66.38" height="218.33"/>
<rect x="10.44" y="7.96" class="st34" width="126.91" height="218.33"/>
<g>
	<path class="st1" d="M161.84,191.44h1.63c0.65,0,1.17,0.53,1.17,1.17l0,7.87c0,0.65,0.53,1.17,1.17,1.17h31.13
		c0.65,0,1.17,0.52,1.17,1.17v2.55c0,0.65-0.53,1.17-1.17,1.17l-31.13,0c-0.64,0-1.17,0.53-1.17,1.17v7.92
		c0,0.65-0.53,1.17-1.17,1.17h-1.63c-0.65,0-1.17-0.53-1.17-1.17l0-23.02C160.67,191.97,161.19,191.44,161.84,191.44z"/>
	<path class="st1" d="M169.36,176.75h2.65c0.65,0,1.17,0.53,1.17,1.17v0.12c0,3.9,1.51,6.41,4.52,7.54
		c1.22,0.46,2.69,0.68,4.39,0.68h14.84c0.65,0,1.17,0.53,1.17,1.17v2.55c0,0.65-0.53,1.17-1.17,1.17l-27.1,0
		c-0.64,0-1.17-0.53-1.17-1.17v-2.55c0-0.65,0.53-1.17,1.17-1.17h0.12c0.12,0,0.23-0.02,0.33-0.05c0.79-0.23,1.15-1.25,0.54-1.9
		c-0.19-0.2-0.37-0.41-0.54-0.63c-0.28-0.34-0.53-0.71-0.76-1.1c-0.75-1.29-1.2-2.81-1.35-4.56
		C168.14,177.34,168.68,176.75,169.36,176.75z"/>
	<path class="st1" d="M169.85,147.52l27.1,0c0.65,0,1.17,0.53,1.17,1.17v2.55c0,0.65-0.53,1.17-1.17,1.17h-0.06
		c-1.01,0-1.52,1.18-0.87,1.96c0.48,0.58,0.91,1.23,1.26,1.94c0.84,1.67,1.26,3.51,1.26,5.51c0,2.29-0.48,4.35-1.43,6.18
		c-0.95,1.83-2.37,3.27-4.27,4.33c-0.1,0.05-0.2,0.11-0.29,0.16c-1.84,0.95-4.05,1.42-6.63,1.42h-16.08c-0.64,0-1.17-0.52-1.17-1.17
		v-2.49c0-0.65,0.53-1.17,1.17-1.17h15.44c2.9,0,5.13-0.73,6.69-2.2c0.21-0.2,0.41-0.41,0.59-0.63c1.16-1.39,1.75-3.19,1.75-5.39
		c0-2.22-0.58-4.04-1.75-5.46c-0.2-0.25-0.43-0.49-0.67-0.72c-1.56-1.45-3.81-2.21-6.75-2.25c-0.1-0.01-0.19-0.01-0.29-0.01h-15
		c-0.64,0-1.17-0.52-1.17-1.17v-2.55C168.68,148.04,169.2,147.52,169.85,147.52z"/>
	<path class="st1" d="M177.71,115.54c-0.94,0.27-1.83,0.64-2.67,1.1c-1.98,1.08-3.56,2.59-4.75,4.52c-0.1,0.15-0.19,0.3-0.27,0.46
		c-1.22,2.15-1.82,4.62-1.82,7.41c0,2.87,0.62,5.4,1.85,7.6c0.08,0.14,0.16,0.28,0.25,0.42c1.22,2,2.9,3.57,5.05,4.71
		c0.75,0.4,1.54,0.73,2.37,1c1.7,0.55,3.59,0.83,5.63,0.83c0.61,0,1.21-0.03,1.79-0.08c2.32-0.2,4.39-0.8,6.24-1.81
		c0.41-0.23,0.8-0.46,1.18-0.72c1.75-1.16,3.14-2.65,4.16-4.46c1.25-2.2,1.88-4.71,1.88-7.5c0-3.51-0.89-6.45-2.66-8.81
		c-0.98-1.29-2.1-2.35-3.39-3.17c-0.61-0.39-1.25-0.72-1.93-1.01c-0.76-0.32-1.59,0.27-1.59,1.1v2.78c0,0.47,0.26,0.92,0.69,1.11
		c1.12,0.5,2.06,1.22,2.84,2.15c0.15,0.18,0.29,0.37,0.43,0.56c0.99,1.41,1.48,3.18,1.48,5.29c0,2.28-0.64,4.26-1.91,5.93
		c-0.17,0.22-0.35,0.44-0.54,0.65c-1.37,1.52-3.18,2.46-5.44,2.84c-0.71,0.11-1.36-0.44-1.36-1.16v-21.15
		c0-0.16-0.03-0.31-0.09-0.45c-0.17-0.4-0.56-0.69-1.02-0.72c-0.64-0.04-1.25-0.06-1.85-0.06
		C180.65,114.9,179.13,115.11,177.71,115.54z M179.86,138.34c-0.77-0.15-1.48-0.37-2.15-0.65c-1.17-0.5-2.18-1.22-3.02-2.14
		c-1.58-1.74-2.36-3.84-2.36-6.31c0-1.72,0.35-3.29,1.05-4.7c0.7-1.41,1.72-2.54,3.06-3.36c0.4-0.24,0.83-0.45,1.28-0.62
		c0.69-0.27,1.44-0.45,2.25-0.54c0.69-0.08,1.29,0.48,1.29,1.17v16C181.25,137.92,180.58,138.49,179.86,138.34z"/>
	<path class="st1" d="M187.79,79.27c1.68,0,3.27,0.41,4.77,1.23c0.13,0.07,0.26,0.14,0.39,0.22c1.61,0.97,2.92,2.4,3.92,4.3
		c1.01,1.9,1.51,4.14,1.51,6.72c0,2.47-0.44,4.68-1.32,6.63c-0.87,1.96-2.09,3.49-3.65,4.6c-0.27,0.19-0.56,0.38-0.85,0.53
		c-0.99,0.56-2.07,0.92-3.24,1.08c-0.7,0.1-1.32-0.46-1.32-1.16v-2.96c0-0.54,0.38-1.01,0.91-1.13c1.36-0.31,2.54-0.99,3.52-2.03
		c0.04-0.04,0.09-0.09,0.12-0.14c1.12-1.26,1.68-3.07,1.68-5.42c0-2.28-0.56-4.09-1.68-5.42c-0.02-0.03-0.04-0.06-0.07-0.09
		c-1.16-1.35-2.66-2.02-4.49-2.02c-1.12,0-2.07,0.24-2.87,0.73c-0.22,0.13-0.43,0.28-0.62,0.45c-0.9,0.79-1.58,1.77-2.04,2.96
		c-0.47,1.18-0.97,2.78-1.51,4.78c-0.64,2.47-1.29,4.45-1.93,5.94c-0.34,0.78-0.77,1.5-1.32,2.15c-0.48,0.6-1.06,1.16-1.72,1.66
		c-1.38,1.06-3.24,1.58-5.56,1.58h-0.14c-1.98-0.03-3.74-0.54-5.28-1.55c-0.8-0.53-1.52-1.17-2.14-1.93
		c-0.59-0.72-1.09-1.53-1.51-2.45c-0.86-1.88-1.29-4.04-1.29-6.48c0-3.51,0.88-6.38,2.63-8.62c0.05-0.07,0.11-0.14,0.17-0.21
		c1.44-1.75,3.24-2.87,5.42-3.36c0.72-0.16,1.39,0.42,1.39,1.15v3.06c0,0.52-0.35,0.97-0.85,1.12c-1.09,0.33-2.06,1.02-2.94,2.07
		c-1.09,1.33-1.64,3.08-1.64,5.27c0,2.04,0.53,3.7,1.59,4.99c1.06,1.29,2.54,1.93,4.43,1.93h0.02c1.36-0.01,2.46-0.39,3.31-1.16
		c0.86-0.77,1.52-1.71,1.96-2.85c0.45-1.13,0.96-2.71,1.53-4.75c0.2-0.74,0.41-1.45,0.62-2.11c0.47-1.52,0.93-2.81,1.4-3.86
		c0.66-1.51,1.68-2.79,3.06-3.87c0.82-0.63,1.81-1.08,2.96-1.35C185.94,79.36,186.82,79.27,187.79,79.27z"/>
	<path class="st1" d="M177.71,48.33c-0.98,0.28-1.91,0.66-2.79,1.14c-1.91,1.05-3.46,2.49-4.63,4.33c-0.14,0.21-0.27,0.42-0.39,0.64
		c-1.22,2.15-1.83,4.62-1.83,7.41c0,2.87,0.62,5.4,1.85,7.61c0.12,0.21,0.24,0.41,0.36,0.61c1.21,1.91,2.85,3.41,4.93,4.52
		c0.79,0.42,1.62,0.77,2.5,1.04c1.67,0.53,3.51,0.79,5.51,0.79c0.65,0,1.29-0.03,1.91-0.09c2.27-0.21,4.31-0.81,6.12-1.8
		c0.46-0.25,0.89-0.51,1.3-0.8c1.69-1.15,3.03-2.62,4.04-4.38c1.25-2.2,1.88-4.71,1.88-7.5c0-3.51-0.88-6.45-2.66-8.81
		c-0.94-1.25-2.03-2.28-3.26-3.09c-0.64-0.43-1.32-0.79-2.05-1.09c-0.76-0.32-1.59,0.27-1.59,1.1v2.78c0,0.47,0.26,0.92,0.69,1.11
		c1.17,0.53,2.15,1.29,2.95,2.29c0.11,0.13,0.21,0.27,0.31,0.42c0.98,1.41,1.47,3.18,1.47,5.29c0,2.2-0.59,4.13-1.78,5.77
		c-0.2,0.28-0.42,0.55-0.66,0.81c-1.37,1.52-3.18,2.46-5.44,2.84c-0.62,0.1-1.2-0.32-1.32-0.91c-0.02-0.08-0.03-0.17-0.03-0.26
		V48.96c0-0.62-0.49-1.13-1.11-1.17c-0.64-0.04-1.25-0.06-1.85-0.06C180.57,47.73,179.1,47.92,177.71,48.33z M181.13,54.02v16
		c0,0.73-0.67,1.3-1.38,1.15c-0.72-0.14-1.4-0.34-2.03-0.6c-1.23-0.5-2.28-1.23-3.14-2.19c-1.58-1.74-2.36-3.84-2.36-6.31
		c0-1.72,0.35-3.29,1.05-4.7c0.7-1.41,1.72-2.53,3.07-3.36c0.43-0.27,0.9-0.49,1.39-0.67c0.66-0.24,1.37-0.41,2.12-0.49
		C180.52,52.77,181.13,53.32,181.13,54.02z"/>
	<path class="st1" d="M159.41,37.97l37.41,0c0.65,0,1.17,0.53,1.17,1.17v2.55c0,0.65-0.53,1.17-1.17,1.17l-37.41,0
		c-0.65,0-1.17-0.53-1.17-1.17v-2.55C158.24,38.49,158.76,37.97,159.41,37.97z"/>
	<path class="st1" d="M169.73,17.66l1.68,0c0.65,0,1.17,0.53,1.17,1.17v3.84c0,0.65,0.53,1.17,1.17,1.17l23.07,0
		c0.65,0,1.17,0.53,1.17,1.17v2.55c0,0.64-0.53,1.17-1.17,1.17l-23.07,0c-0.65,0-1.17,0.53-1.17,1.17v1.47
		c0,0.65-0.53,1.17-1.17,1.17h-1.68c-0.65,0-1.17-0.53-1.17-1.17V29.9c0-0.65-0.53-1.17-1.17-1.17h-0.93
		c-1.35,0-2.55-0.14-3.59-0.43c-1.52-0.41-2.73-1.11-3.63-2.12c-1.35-1.51-2.1-3.83-2.26-6.96c-0.03-0.67,0.5-1.24,1.17-1.24h1.76
		c0.61,0,1.11,0.48,1.16,1.09c0.12,1.58,0.53,2.73,1.22,3.45c0.17,0.18,0.36,0.34,0.57,0.48c0.85,0.56,2.04,0.84,3.59,0.84l0.93,0
		c0.64,0,1.17-0.53,1.17-1.17v-3.84C168.55,18.18,169.08,17.66,169.73,17.66z"/>
</g>
<g>
	<path class="st1" d="M103.37,214.37c-8.73,0-19.92-1.49-26.33-8.17c-22.76-22.24-27.16-47.42-27.92-58.84
		c-7.02,1.52-16.6,0.88-23.38-7.72c-3.43-4.35-5.22-9.58-5.19-15.13c0.09-15.06,3.51-23.93,10.47-27.11
		c4.02-1.83,8.22-1.24,11.76,0.08c-2.16-20.95,4.55-41.09,18.74-55.2c22.24-22.12,49.86-22.41,51.22-22.41c0.01,0,0.01,0,0.01,0
		c1.14,0,2.24,0.46,3.04,1.28c0.8,0.82,1.25,1.92,1.23,3.06l-1.07,73.64c-0.01,0.42-0.08,0.85-0.21,1.25
		c-5.39,16.73-10.87,46.57-12.93,58.35h12.07c2.36,0,4.28,1.92,4.28,4.28c0,2.36-1.92,4.28-4.28,4.28H97.76
		c-1.26,0-2.45-0.55-3.26-1.51c-0.81-0.96-1.16-2.22-0.96-3.46c0.28-1.73,6.97-42.13,13.88-63.94l0.99-68.32
		c-8.1,0.99-26.02,4.82-40.85,19.57c-14.15,14.08-19.73,35.18-14.92,56.44c0.41,1.8-0.38,3.66-1.97,4.61
		c-1.58,0.95-3.59,0.78-4.99-0.42c-2.21-1.88-7.85-5.28-11.12-3.78c-1.61,0.74-5.37,4.11-5.46,19.37c-0.02,3.59,1.14,6.97,3.35,9.78
		c7.03,8.92,18.46,3.5,18.94,3.27c1.37-0.67,3-0.56,4.26,0.29c1.27,0.85,1.99,2.3,1.9,3.82c-0.02,0.31-1.57,31.99,25.5,58.4
		c0.04,0.04,0.08,0.08,0.11,0.11c5.62,5.91,19.48,5.95,27.44,5.2v-14.18c-6.77,1.14-18.54,1.55-29.65-5.64
		c-1.98-1.28-2.55-3.93-1.27-5.92c1.28-1.98,3.93-2.55,5.92-1.27c13.08,8.46,27.71,3.43,27.85,3.38c1.31-0.46,2.76-0.26,3.9,0.54
		c1.13,0.8,1.81,2.11,1.81,3.49v23.37c0,2.1-1.52,3.88-3.59,4.22C114.44,213.63,109.52,214.37,103.37,214.37z"/>
</g>
</svg>
